PathFileType	4	(X/Y/Z)	 s06c0403.trc
DataRate	CameraRate	NumFrames	NumMarkers	Units	OrigDataRate	OrigDataStartFrame	OrigNumFrames
200	200	4	48	mm	200	1001	2000
Frame#	Time	racr			lacr			c7			jug			rlel			rdr			llel			ldr			s2			lic			ric			lasi			rasi			rpsi			lpsi			rgt			lgt			rth1			rth2			rth3			rth4			rlfc			rmfc			rsh1			rsh2			rsh3			rsh4			rlmal			rcal			rtoe			rmt5			lth1			lth2			lth4			lth3			llfc			lmfc			llmal			lcal			lmt5			lsh1			lsh2			lsh3			lsh4			ltoe			SBIKE			LBIKE			RBIKE			
		X1	Y1	Z1	X2	Y2	Z2	X3	Y3	Z3	X4	Y4	Z4	X5	Y5	Z5	X6	Y6	Z6	X7	Y7	Z7	X8	Y8	Z8	X9	Y9	Z9	X10	Y10	Z10	X11	Y11	Z11	X12	Y12	Z12	X13	Y13	Z13	X14	Y14	Z14	X15	Y15	Z15	X16	Y16	Z16	X17	Y17	Z17	X18	Y18	Z18	X19	Y19	Z19	X20	Y20	Z20	X21	Y21	Z21	X22	Y22	Z22	X23	Y23	Z23	X24	Y24	Z24	X25	Y25	Z25	X26	Y26	Z26	X27	Y27	Z27	X28	Y28	Z28	X29	Y29	Z29	X30	Y30	Z30	X31	Y31	Z31	X32	Y32	Z32	X33	Y33	Z33	X34	Y34	Z34	X35	Y35	Z35	X36	Y36	Z36	X37	Y37	Z37	X38	Y38	Z38	X39	Y39	Z39	X40	Y40	Z40	X41	Y41	Z41	X42	Y42	Z42	X43	Y43	Z43	X44	Y44	Z44	X45	Y45	Z45	X46	Y46	Z46	X47	Y47	Z47	X48	Y48	Z48	
1001	5.0050	800.943140	1211.372315	-57.517672	817.801891	1162.059207	-377.961380	842.468045	1280.680524	-218.619193	788.122879	1121.154083	-204.450808	590.402252	1102.460297	91.780082	691.876418	946.601483	-23.651241	576.230940	1102.556934	-520.423965	674.984126	946.914847	-412.112524	258.011184	1197.097562	-248.266370	410.769686	1105.649232	-396.481716	385.834230	1169.214703	-70.398351	417.485993	1062.472470	-347.907940	407.655855	1114.715104	-93.984929	295.039742	1231.953070	-220.350944	300.601108	1220.743640	-279.462964	351.458596	1103.817868	-23.378370	355.643943	1031.189984	-414.314124	442.488668	1005.971957	-14.746266	512.989875	952.307676	-19.457794	547.900790	871.335372	-23.024942	538.708151	972.779339	-40.356614	571.514185	775.548306	-41.995108	556.682605	755.656391	-153.364439	471.338059	708.396438	-21.148866	402.620972	657.778073	-42.676203	317.157365	640.480127	-43.808134	416.143418	638.605418	-75.707129	234.228395	615.303391	-49.846900	184.089983	656.669809	-100.715024	257.332448	389.476796	-95.260093	207.408069	476.301663	-28.946325	334.477999	909.712511	-431.008000	356.312106	826.158133	-423.026983	392.178977	826.169214	-413.855619	332.238405	740.313038	-414.099157	316.637490	623.299209	-393.661238	322.307795	604.770340	-280.974470	196.639408	271.101902	-372.783197	129.625808	275.499984	-323.220125	284.735500	154.760804	-401.240530	280.454394	519.722637	-412.066904	275.286448	435.139413	-394.426575	226.752448	361.508411	-389.025574	304.274725	430.220508	-368.076928	365.818884	121.997835	-344.196969	-204.569268	867.047765	-204.252678	-52.180179	83.710368	-410.626793	-50.957277	80.485562	-13.201826	
1002	5.0100	799.816809	1211.572178	-55.109028	817.332099	1164.375641	-376.235793	841.534331	1280.734979	-216.326692	786.662901	1121.393039	-202.098042	588.911088	1101.603876	92.319822	691.530889	946.855871	-23.633389	577.181357	1101.900712	-519.545203	677.351716	947.244782	-411.928988	257.517759	1197.342605	-250.146164	412.430104	1105.278548	-395.245556	383.251984	1170.532931	-72.404203	417.560915	1061.944002	-346.508527	405.472830	1115.998107	-95.534764	294.530142	1231.893955	-222.395232	300.517318	1220.771203	-281.397955	350.574151	1105.646980	-24.193803	355.910115	1030.039094	-414.514515	442.811326	1009.835317	-14.114669	515.213153	957.790592	-19.823075	551.397462	878.131795	-21.782141	541.039160	978.493177	-41.484657	577.862026	782.696424	-41.586319	563.441635	762.214174	-153.687447	477.720718	715.089437	-21.190639	410.193201	663.739941	-42.212552	325.002158	645.614017	-43.704635	424.067659	644.447555	-75.340449	241.724044	619.084747	-50.201478	190.779720	659.589242	-100.912605	270.404845	395.338736	-94.214780	217.730246	479.735447	-29.141176	331.524061	909.603287	-430.456909	351.393752	825.371318	-423.119717	387.354275	824.551540	-414.072068	325.453747	740.187847	-414.287039	308.338498	623.638659	-394.081971	312.476312	605.419643	-280.577045	190.445145	270.913385	-372.376681	124.508705	277.241385	-322.913637	275.425316	151.329633	-401.029386	272.422945	519.690012	-411.766896	267.921630	434.934852	-394.455376	219.906914	360.811049	-388.446572	297.242534	430.295405	-368.495746	355.493776	115.766244	-344.124638	-204.650105	867.033079	-204.148042	-52.186517	83.729712	-410.635997	-51.017465	80.746040	-12.958939	
1003	5.0150	798.821085	1211.515554	-52.804535	816.878934	1166.588693	-374.625070	840.630724	1280.596169	-214.010636	785.272204	1121.420199	-199.798380	587.515999	1100.842015	92.736864	691.162107	947.090166	-23.643050	578.086841	1101.233468	-518.747846	680.141396	947.502372	-411.602214	257.359795	1197.840930	-251.865475	414.040150	1105.227122	-394.097246	381.562448	1172.300428	-73.030170	417.663008	1061.706824	-345.279567	404.860270	1118.085916	-95.854583	294.192694	1232.510420	-224.280909	300.786264	1221.002867	-283.207565	349.942286	1107.456338	-25.111909	355.994745	1029.362079	-414.719741	442.302869	1014.768347	-12.959733	517.006282	963.331413	-20.205782	555.676532	884.582243	-20.488056	542.131480	984.389345	-42.311906	583.571815	790.262551	-41.345862	569.334054	767.966558	-154.677955	484.548262	721.305485	-21.237227	417.619928	669.210640	-42.073515	332.434640	650.349583	-43.700804	431.854092	649.939747	-74.985523	249.362865	622.306316	-50.364215	197.385978	661.531761	-101.005339	281.215292	397.928598	-95.640305	228.072707	482.525982	-29.387935	329.343091	909.530969	-429.872273	347.122978	824.992611	-423.132263	383.311243	823.343532	-414.084379	319.469537	740.339415	-414.384102	300.895907	624.216363	-393.795934	305.036825	606.156126	-279.459589	184.682781	271.463780	-372.054750	119.703217	279.768200	-322.614420	266.094940	148.352988	-400.907333	264.941035	520.198656	-411.502896	261.069187	435.371233	-394.479217	213.470996	360.940080	-388.115715	290.565404	430.832504	-368.752021	344.849938	110.001119	-343.961233	-204.737131	867.034314	-204.105179	-52.189718	83.721629	-410.622522	-51.039420	80.787383	-12.917044	
1004	5.0200	797.551297	1211.256064	-50.641051	816.466375	1168.661495	-373.140082	839.753276	1280.272467	-211.724292	783.648048	1121.341413	-197.687452	586.186303	1100.025811	93.129115	690.752699	947.382801	-23.780393	578.976946	1100.625405	-517.995189	682.998779	947.196568	-411.062245	257.379304	1198.614462	-253.287487	415.584375	1105.336204	-393.229207	380.001110	1173.954635	-73.685557	417.769485	1061.600440	-344.407442	403.958846	1119.953337	-96.334227	292.936997	1234.299761	-227.310365	301.051041	1221.697266	-284.697113	349.561174	1109.496274	-25.881342	355.851699	1029.346591	-414.936682	443.008119	1019.027103	-13.973678	519.023473	968.872663	-21.127820	558.704117	890.786165	-19.536981	543.533823	990.230764	-43.198663	588.836679	797.237982	-41.598217	575.938941	775.403902	-154.307451	490.789474	727.463353	-21.125054	424.748696	674.350089	-42.104020	339.916592	654.329506	-43.620624	439.330804	654.993594	-74.892096	256.681458	624.836585	-50.506420	203.776005	662.879953	-101.012106	293.370798	401.198099	-95.979949	238.577563	484.611663	-29.511317	326.911929	910.100416	-429.942487	343.262867	824.965530	-423.060702	379.603254	822.649065	-414.035827	314.187488	740.881293	-414.489807	294.211052	625.135004	-393.414028	298.415336	606.794267	-278.564713	179.326721	272.546848	-371.759835	115.406410	282.926328	-322.291518	256.657968	145.927063	-400.746885	258.088984	521.217187	-411.212496	254.667859	436.300072	-394.460806	207.436912	361.620213	-387.984874	284.377439	431.778971	-368.949741	334.018410	104.782411	-344.045363	-204.837716	867.014924	-204.017111	-52.214659	83.742410	-410.621137	-51.108343	80.858457	-12.875490	
